{
  "accessors": [
    {
      "bufferView": 3,
      "componentType": 5126,
      "count": 646,
      "max": [
        0.9029619097709656,
        1.4527074098587036,
        0.8869102597236633
      ],
      "min": [
        -0.9029619097709656,
        -0.015411540865898132,
        -0.8334383964538574
      ],
      "type": "VEC3"
    },
    {
      "bufferView": 3,
      "byteOffset": 7752,
      "componentType": 5126,
      "count": 646,
      "max": [
        1.0,
        1.0,
        1.0
      ],
      "min": [
        -1.0,
        -1.0,
        -1.0
      ],
      "type": "VEC3"
    },
    {
      "bufferView": 4,
      "componentType": 5126,
      "count": 646,
      "max": [
        1.0,
        1.0,
        1.0,
        1.0
      ],
      "min": [
        -0.36267876625061035,
        -1.0,
        -1.0,
        1.0
      ],
      "type": "VEC4"
    },
    {
      "bufferView": 2,
      "componentType": 5126,
      "count": 646,
      "max": [
        0.9693370461463928,
        0.9980080127716064
      ],
      "min": [
        0.0019348046043887734,
        0.00199203216470778
      ],
      "type": "VEC2"
    },
    {
      "bufferView": 1,
      "componentType": 5125,
      "count": 1380,
      "type": "SCALAR"
    },
    {
      "bufferView": 5,
      "componentType": 5126,
      "count": 3,
      "max": [
        34.54362487792969,
        0.0,
        0.0,
        0.0,
        0.0,
        34.54362487792969,
        0.0,
        0.0,
        34.54362487792969,
        0.0,
        34.54362487792969,
        0.0,
        0.0,
        0.0,
        0.0,
        1.0
      ],
      "min": [
        0.0007999352528713644,
        0.0,
        -34.54362487792969,
        0.0,
        0.0,
        1.0,
        0.0,
        0.0,
        0.0,
        0.0,
        0.0007999352528713644,
        0.0,
        -1.6263032587282567e-18,
        -28.218494415283203,
        -28.330883026123047,
        1.0
      ],
      "type": "MAT4"
    },
    {
      "bufferView": 0,
      "componentType": 5123,
      "count": 646,
      "type": "VEC4"
    },
    {
      "bufferView": 4,
      "byteOffset": 10336,
      "componentType": 5126,
      "count": 646,
      "max": [
        1.0,
        0.0,
        0.0,
        0.0
      ],
      "min": [
        1.0,
        0.0,
        0.0,
        0.0
      ],
      "type": "VEC4"
    },
    {
      "bufferView": 6,
      "componentType": 5126,
      "count": 60,
      "max": [
        1.7916666269302368
      ],
      "min": [
        0.0
      ],
      "type": "SCALAR"
    },
    {
      "bufferView": 8,
      "componentType": 5126,
      "count": 60,
      "max": [
        0.6275862455368042,
        0.7070986032485962,
        4.759064778543654e-13,
        0.7071149945259094
      ],
      "min": [
        -4.758946600506853e-13,
        0.32579469680786133,
        -0.627571702003479,
        0.3258022367954254
      ],
      "type": "VEC4"
    },
    {
      "bufferView": 6,
      "byteOffset": 240,
      "componentType": 5126,
      "count": 1,
      "max": [
        0.0
      ],
      "min": [
        0.0
      ],
      "type": "SCALAR"
    },
    {
      "bufferView": 7,
      "componentType": 5126,
      "count": 1,
      "max": [
        100.0,
        100.0,
        100.0
      ],
      "min": [
        100.0,
        100.0,
        100.0
      ],
      "type": "VEC3"
    },
    {
      "bufferView": 6,
      "byteOffset": 244,
      "componentType": 5126,
      "count": 19,
      "max": [
        0.5
      ],
      "min": [
        0.0
      ],
      "type": "SCALAR"
    },
    {
      "bufferView": 8,
      "byteOffset": 960,
      "componentType": 5126,
      "count": 19,
      "max": [
        0.06345108896493912,
        -0.6921772360801697,
        0.046621572226285934,
        0.7185432314872742
      ],
      "min": [
        -0.024951698258519173,
        -0.7290098667144775,
        -0.04772309958934784,
        0.6840143799781799
      ],
      "type": "VEC4"
    }
  ],
  "animations": [
    {
      "channels": [
        {
          "sampler": 0,
          "target": {
            "node": 10,
            "path": "rotation"
          }
        },
        {
          "sampler": 1,
          "target": {
            "node": 9,
            "path": "scale"
          }
        },
        {
          "sampler": 2,
          "target": {
            "node": 8,
            "path": "rotation"
          }
        }
      ],
      "name": "Rattle Open",
      "samplers": [
        {
          "input": 8,
          "interpolation": "LINEAR",
          "output": 9
        },
        {
          "input": 10,
          "interpolation": "LINEAR",
          "output": 11
        },
        {
          "input": 12,
          "interpolation": "LINEAR",
          "output": 13
        }
      ]
    }
  ],
  "asset": {
    "extras": {
      "author": "Jonny Shields (https://sketchfab.com/jonnyshields)",
      "license": "CC-BY-4.0 (http://creativecommons.org/licenses/by/4.0/)",
      "source": "https://sketchfab.com/3d-models/chest-opening-d76654fab7f644fa938e7e4364c8069c",
      "title": "Chest Opening"
    },
    "generator": "Sketchfab-14.86.0",
    "version": "2.0"
  },
  "bufferViews": [
    {
      "buffer": 0,
      "byteLength": 5168,
      "byteStride": 8,
      "name": "shortBufferViews",
      "target": 34962
    },
    {
      "buffer": 0,
      "byteLength": 5520,
      "byteOffset": 5168,
      "name": "floatBufferViews",
      "target": 34963
    },
    {
      "buffer": 0,
      "byteLength": 5168,
      "byteOffset": 10688,
      "byteStride": 8,
      "name": "floatBufferViews",
      "target": 34962
    },
    {
      "buffer": 0,
      "byteLength": 15504,
      "byteOffset": 15856,
      "byteStride": 12,
      "name": "floatBufferViews",
      "target": 34962
    },
    {
      "buffer": 0,
      "byteLength": 20672,
      "byteOffset": 31360,
      "byteStride": 16,
      "name": "floatBufferViews",
      "target": 34962
    },
    {
      "buffer": 0,
      "byteLength": 192,
      "byteOffset": 52032,
      "name": "floatBufferViews"
    },
    {
      "buffer": 0,
      "byteLength": 320,
      "byteOffset": 52224,
      "name": "floatBufferViews"
    },
    {
      "buffer": 0,
      "byteLength": 12,
      "byteOffset": 52544,
      "byteStride": 12,
      "name": "floatBufferViews"
    },
    {
      "buffer": 0,
      "byteLength": 1264,
      "byteOffset": 52556,
      "byteStride": 16,
      "name": "floatBufferViews"
    }
  ],
  "buffers": [
    {
      "byteLength": 53820,
      "uri": "scene.bin"
    }
  ],
  "images": [
    {
      "uri": "textures/lambert1_baseColor.png"
    },
    {
      "uri": "textures/lambert1_metallicRoughness.png"
    },
    {
      "uri": "textures/lambert1_normal.png"
    }
  ],
  "materials": [
    {
      "doubleSided": true,
      "name": "lambert1",
      "normalTexture": {
        "index": 2
      },
      "occlusionTexture": {
        "index": 1
      },
      "pbrMetallicRoughness": {
        "baseColorTexture": {
          "index": 0
        },
        "metallicRoughnessTexture": {
          "index": 1
        }
      }
    }
  ],
  "meshes": [
    {
      "name": "Chest_lambert1_0",
      "primitives": [
        {
          "attributes": {
            "JOINTS_0": 6,
            "NORMAL": 1,
            "POSITION": 0,
            "TANGENT": 2,
            "TEXCOORD_0": 3,
            "WEIGHTS_0": 7
          },
          "indices": 4,
          "material": 0,
          "mode": 4
        }
      ]
    }
  ],
  "nodes": [
    {
      "children": [
        1
      ],
      "matrix": [
        3.640503406524658,
        0.0,
        0.0,
        0.0,
        0.0,
        8.083541406299984e-16,
        -3.640503406524658,
        0.0,
        0.0,
        3.640503406524658,
        8.083541406299984e-16,
        0.0,
        0.0,
        0.0,
        0.0,
        1.0
      ],
      "name": "Sketchfab_model"
    },
    {
      "children": [
        2
      ],
      "matrix": [
        1.0,
        0.0,
        0.0,
        0.0,
        0.0,
        0.0,
        1.0,
        0.0,
        0.0,
        -1.0,
        0.0,
        0.0,
        0.0,
        0.0,
        0.0,
        1.0
      ],
      "name": "4056121e04f4435aacdd4aaf1c955eca.fbx"
    },
    {
      "children": [
        3
      ],
      "name": "Object_2"
    },
    {
      "children": [
        4
      ],
      "name": "RootNode"
    },
    {
      "children": [
        5,
        7,
        6,
        11
      ],
      "name": "Object_4"
    },
    {
      "children": [
        8
      ],
      "name": "_rootJoint"
    },
    {
      "matrix": [
        0.3454362595354865,
        0.0,
        1.6940658945086007e-21,
        0.0,
        0.0,
        0.3454362595354865,
        0.0,
        0.0,
        -1.6940658945086007e-21,
        0.0,
        0.3454362595354865,
        0.0,
        -5.293955920339377e-23,
        0.0,
        0.011805632586926476,
        1.0
      ],
      "name": "Object_6"
    },
    {
      "mesh": 0,
      "name": "Object_7",
      "skin": 0
    },
    {
      "children": [
        9
      ],
      "name": "Base_00",
      "rotation": [
        0.0,
        -0.7070986032485962,
        0.0,
        0.7071149945259094
      ],
      "scale": [
        0.009999999776482582,
        0.009999999776482582,
        0.009999999776482582
      ]
    },
    {
      "children": [
        10
      ],
      "extras": {
        "scaleCompensation": "scaleCompensation"
      },
      "name": "Lid_01_scaleCompensation",
      "scale": [
        100.0,
        100.0,
        100.0
      ],
      "translation": [
        28.330883026123047,
        28.218494415283203,
        0.0006560652400366962
      ]
    },
    {
      "name": "Lid_01",
      "rotation": [
        0.5724143981933594,
        0.4151451289653778,
        -0.5724011063575745,
        0.41515475511550903
      ],
      "scale": [
        0.009999999776482582,
        0.009999999776482582,
        0.009999999776482582
      ]
    },
    {
      "name": "Chest",
      "scale": [
        0.3454362452030182,
        0.3454362452030182,
        0.3454362452030182
      ],
      "translation": [
        0.0,
        0.0,
        0.011805632151663303
      ]
    }
  ],
  "samplers": [
    {
      "magFilter": 9729,
      "minFilter": 9987,
      "wrapS": 10497,
      "wrapT": 10497
    }
  ],
  "scene": 0,
  "scenes": [
    {
      "name": "Sketchfab_Scene",
      "nodes": [
        0
      ]
    }
  ],
  "skins": [
    {
      "inverseBindMatrices": 5,
      "joints": [
        5,
        8,
        10
      ],
      "skeleton": 5
    }
  ],
  "textures": [
    {
      "sampler": 0,
      "source": 0
    },
    {
      "sampler": 0,
      "source": 1
    },
    {
      "sampler": 0,
      "source": 2
    }
  ]
}
